<?xml version="1.0" encoding="utf-8"?>
<!-- Generator: Adobe Illustrator 28.5.0, SVG Export Plug-In . SVG Version: 9.03 Build 54727)  -->
<svg version="1.1" id="Capa_1" xmlns="http://www.w3.org/2000/svg" xmlns:xlink="http://www.w3.org/1999/xlink" x="0px" y="0px"
	 viewBox="0 0 289.43 435.63" style="enable-background:new 0 0 289.43 435.63;" xml:space="preserve">
<style type="text/css">
	.st0{fill:#FFFFFF;}
	.st1{fill:#00B1E3;}
</style>
<g>
	<path d="M202.41,189.56c-6.79-29.45-23.61-50.89-50.6-64.39c-1.4-0.7-3.06-2.18-4.54-0.75c-1.25,1.21,0,2.84,0.49,4.19
		c8.35,22.81,16.23,45.75,21.89,69.44c6.29,26.32,9.54,52.98,11.15,79.91c0,1.33-0.1,2.68,0.02,3.99c0.19,1.88-0.87,4.44,1.43,5.38
		c2.52,1.04,3.8-1.31,5.16-2.96c4.29-5.2,7.44-11.06,9.75-17.34C206.48,241.73,208.5,215.95,202.41,189.56z M195.8,265.48
		c-2.31,6.09-5.12,11.95-9.31,17.01c-0.88,1.07-1.64,2.98-3.44,2.16c-1.4-0.64-0.86-2.38-0.85-3.65c0.15-17.7-1.69-35.24-4.63-52.63
		c-5.4-31.9-13.63-63.06-25.63-93.16c-1.02-2.56-1.76-5.24-2.94-8.79c9.38,3.37,16.49,8.44,23.05,14.25
		c18.87,16.74,28.31,38.18,30.97,62.95C205.3,224.8,203.38,245.48,195.8,265.48z"/>
	<path class="st0" d="M195.8,265.48c-2.31,6.09-5.12,11.95-9.31,17.01c-0.88,1.07-1.64,2.98-3.44,2.16
		c-1.4-0.64-0.86-2.38-0.85-3.65c0.15-17.7-1.69-35.24-4.63-52.63c-5.4-31.9-13.63-63.06-25.63-93.16
		c-1.02-2.56-1.76-5.24-2.94-8.79c9.38,3.37,16.49,8.44,23.05,14.25c18.87,16.74,28.31,38.18,30.97,62.95
		C205.3,224.8,203.38,245.48,195.8,265.48z"/>
	<g>
		<g>
			<path class="st1" d="M126.87,435.63c0.43-11.05,4.16-21.26,6.34-31.78c4.34-20.92,6.05-41.88,0.82-62.87
				c-2.95-11.84-7.93-22.68-17.69-30.61c-13.32-10.83-28.6-7.28-35.71,8.37c-4.88,10.74-4.4,22.15-2.92,33.42
				c2.02,15.38,6.83,30.18,10.41,45.24c0.57,2.39,1.32,4.73,1.14,8.8c-3.98-6.17-7.44-10.96-10.32-16.08
				c-15.75-27.96-29.2-56.95-37.01-88.2c-4.48-17.92-7.64-36.07-8.3-54.68c-0.42-11.66-0.02-23.32-0.64-34.96
				c-0.78-14.6,2.5-28.83,3.35-43.26c1.58-27.04-0.38-53.44-18.21-75.86c-3.83-4.82-8.15-9.24-12.19-13.89
				c-8.65-9.96-7.67-30.49,1.87-39.57c2.97-2.83,6.59-2.09,9.95-1.36c9.29,2.03,18.29,5.05,27.21,8.33
				C60.1,52.25,75,58.63,90.91,61.93c6.59,1.37,13.27,1.73,19.76-0.37c13.63-4.42,17.66-16.04,9.6-28.01
				c-2.77-4.12-6.44-7.62-9.6-11.48c-5.14-6.27-6.92-14.45-4.84-22.07c1.88,0.34,1.92,2.1,2.43,3.31
				c3.19,7.6,8.38,13.56,14.85,18.49c5.58,4.26,10.75,8.96,15.52,14.1c11.87,12.79,12.05,26.19,0.59,39.23
				c-6.84,7.79-6.75,7.42,3.47,9.99c9.69,2.43,19.16,1.22,28.75-0.04c2.36-0.31,5.92-1.68,6.94,0.52c1.18,2.54-2.01,4.58-3.98,6.24
				c-9.13,7.73-19.88,11.87-31.5,14.28c-12.39,2.57-11.83,0.64-7.47,12.28c6.61,17.62,13.53,35.12,20.3,52.67
				c7.91,20.5,11.75,41.87,14.6,63.59c2.74,20.91,3.52,41.82,2.42,62.8c-1.4,26.64-7.58,52.33-16.33,77.44
				c-5.48,15.73-11.34,31.32-18.31,46.47C135.52,427.02,130.96,431.08,126.87,435.63z"/>
			<path class="st1" d="M259.74,16.07c-2.09,1.28-2.89,1.82-3.73,2.28c-2.59,1.42-6.38,2.44-1.19,5.66c1.87,1.16,0.89,2.84-0.23,4.3
				c-2.89,3.75-6.23,6.89-10.68,8.79c-6.51,2.77-13.3,4.63-20.32,4.66c-4.87,0.02-7.3,2.33-9.07,6.28
				c-6.09,13.59-0.76,34.4,11.22,43.55c9.84,7.51,21.26,12.49,31.48,19.36c14.71,9.9,26.59,22.29,31.1,40.11
				c3.95,15.66-2.81,29.74-17.11,37.23c-8.57,4.48-17.13,8.23-27.16,5.66c-10.55-2.7-19.23-12.85-20.05-23.68
				c-0.25-3.28,1.87-2.09,3.24-1.71c8.3,2.3,16.76,2.55,25.28,2.29c1.17-0.04,2.34-0.03,3.5-0.15c13.33-1.39,19.6-12.04,14.62-24.51
				c-5.49-13.75-16.72-22.08-28.12-30.31c-9.15-6.61-19.33-11.7-27.34-20.03c-24.86-25.88-14.32-66.88,20-77.42
				C242.78,16.06,250.37,15.08,259.74,16.07z"/>
			<path class="st1" d="M191.66,140.83c12.55,9.87,22.91,20.13,30.38,33.58c8.74,15.75,11.18,32.66,11.85,50.01
				c1.37,35.88-7.46,69.63-22.57,101.92c-2.66,5.69-4.85,11.62-9.43,16.75c0.56-5.27,0.75-10.61,1.76-15.79
				c3.27-16.65,4.04-33.34,1.66-50.15c-1.51-10.7,1.68-20.89,3.75-31.09c7.03-34.64,1.21-67.17-14.81-98.26
				C193.29,145.92,191.9,144.2,191.66,140.83z"/>
			<path class="st1" d="M79.4,23c-0.61,2.38-1.37,5.45-2.19,8.5c-1.84,6.8-0.61,13.58,0.23,20.32c0.37,3-0.2,4.07-3.35,3.25
				c-5-1.3-10.04-2.43-14.57-5.03c-1.58-0.9-3.57-1.84-2.86-4.11c3.46-11.07,8.18-21.24,19.95-25.91
				C79.31,18.94,79.81,19.42,79.4,23z"/>
		</g>
	</g>
</g>
</svg>
